<svg width="111" height="32" viewBox="0 0 111 32" fill="none" xmlns="http://www.w3.org/2000/svg">
<g filter="url(#filter0_d_3_34)">
<path d="M4.28 19V5H9.52C10.7067 5 11.7267 5.19333 12.58 5.58C13.4333 5.95333 14.0867 6.5 14.54 7.22C15.0067 7.92667 15.24 8.78667 15.24 9.8C15.24 10.7867 15.0067 11.64 14.54 12.36C14.0867 13.0667 13.4333 13.6133 12.58 14C11.7267 14.3733 10.7067 14.56 9.52 14.56H5.1L5.76 13.88V19H4.28ZM13.84 19L10.24 13.92H11.84L15.46 19H13.84ZM5.76 14L5.1 13.3H9.48C10.88 13.3 11.94 12.9933 12.66 12.38C13.3933 11.7667 13.76 10.9067 13.76 9.8C13.76 8.68 13.3933 7.81333 12.66 7.2C11.94 6.58667 10.88 6.28 9.48 6.28H5.1L5.76 5.58V14ZM22.8931 19.1C21.7998 19.1 20.8398 18.8733 20.0131 18.42C19.1865 17.9533 18.5398 17.32 18.0731 16.52C17.6065 15.7067 17.3731 14.78 17.3731 13.74C17.3731 12.7 17.5931 11.78 18.0331 10.98C18.4865 10.18 19.0998 9.55333 19.8731 9.1C20.6598 8.63333 21.5398 8.4 22.5131 8.4C23.4998 8.4 24.3731 8.62667 25.1331 9.08C25.9065 9.52 26.5131 10.1467 26.9531 10.96C27.3931 11.76 27.6131 12.6867 27.6131 13.74C27.6131 13.8067 27.6065 13.88 27.5931 13.96C27.5931 14.0267 27.5931 14.1 27.5931 14.18H18.4531V13.12H26.8331L26.2731 13.54C26.2731 12.78 26.1065 12.1067 25.7731 11.52C25.4531 10.92 25.0131 10.4533 24.4531 10.12C23.8931 9.78667 23.2465 9.62 22.5131 9.62C21.7931 9.62 21.1465 9.78667 20.5731 10.12C19.9998 10.4533 19.5531 10.92 19.2331 11.52C18.9131 12.12 18.7531 12.8067 18.7531 13.58V13.8C18.7531 14.6 18.9265 15.3067 19.2731 15.92C19.6331 16.52 20.1265 16.9933 20.7531 17.34C21.3931 17.6733 22.1198 17.84 22.9331 17.84C23.5731 17.84 24.1665 17.7267 24.7131 17.5C25.2731 17.2733 25.7531 16.9267 26.1531 16.46L26.9531 17.38C26.4865 17.94 25.8998 18.3667 25.1931 18.66C24.4998 18.9533 23.7331 19.1 22.8931 19.1ZM33.3234 19.1C32.4568 19.1 31.6368 18.98 30.8634 18.74C30.0901 18.4867 29.4834 18.1733 29.0434 17.8L29.6834 16.68C30.1101 17 30.6568 17.28 31.3234 17.52C31.9901 17.7467 32.6901 17.86 33.4234 17.86C34.4234 17.86 35.1434 17.7067 35.5834 17.4C36.0234 17.08 36.2434 16.66 36.2434 16.14C36.2434 15.7533 36.1168 15.4533 35.8634 15.24C35.6234 15.0133 35.3034 14.8467 34.9034 14.74C34.5034 14.62 34.0568 14.52 33.5634 14.44C33.0701 14.36 32.5768 14.2667 32.0834 14.16C31.6034 14.0533 31.1634 13.9 30.7634 13.7C30.3634 13.4867 30.0368 13.2 29.7834 12.84C29.5434 12.48 29.4234 12 29.4234 11.4C29.4234 10.8267 29.5834 10.3133 29.9034 9.86C30.2234 9.40667 30.6901 9.05333 31.3034 8.8C31.9301 8.53333 32.6901 8.4 33.5834 8.4C34.2634 8.4 34.9434 8.49333 35.6234 8.68C36.3034 8.85333 36.8634 9.08667 37.3034 9.38L36.6834 10.52C36.2168 10.2 35.7168 9.97333 35.1834 9.84C34.6501 9.69333 34.1168 9.62 33.5834 9.62C32.6368 9.62 31.9368 9.78667 31.4834 10.12C31.0434 10.44 30.8234 10.8533 30.8234 11.36C30.8234 11.76 30.9434 12.0733 31.1834 12.3C31.4368 12.5267 31.7634 12.7067 32.1634 12.84C32.5768 12.96 33.0234 13.06 33.5034 13.14C33.9968 13.22 34.4834 13.32 34.9634 13.44C35.4568 13.5467 35.9034 13.7 36.3034 13.9C36.7168 14.0867 37.0434 14.36 37.2834 14.72C37.5368 15.0667 37.6634 15.5267 37.6634 16.1C37.6634 16.7133 37.4901 17.2467 37.1434 17.7C36.8101 18.14 36.3168 18.4867 35.6634 18.74C35.0234 18.98 34.2434 19.1 33.3234 19.1ZM43.5891 19.1C42.6024 19.1 41.8424 18.8333 41.3091 18.3C40.7757 17.7667 40.5091 17.0133 40.5091 16.04V6.18H41.9291V15.96C41.9291 16.5733 42.0824 17.0467 42.3891 17.38C42.7091 17.7133 43.1624 17.88 43.7491 17.88C44.3757 17.88 44.8957 17.7 45.3091 17.34L45.8091 18.36C45.5291 18.6133 45.1891 18.8 44.7891 18.92C44.4024 19.04 44.0024 19.1 43.5891 19.1ZM38.6291 9.68V8.5H45.1291V9.68H38.6291ZM54.9741 19V16.68L54.9141 16.3V12.42C54.9141 11.5267 54.6607 10.84 54.1541 10.36C53.6607 9.88 52.9207 9.64 51.9341 9.64C51.2541 9.64 50.6074 9.75333 49.9941 9.98C49.3807 10.2067 48.8607 10.5067 48.4341 10.88L47.7941 9.82C48.3274 9.36667 48.9674 9.02 49.7141 8.78C50.4607 8.52667 51.2474 8.4 52.0741 8.4C53.4341 8.4 54.4807 8.74 55.2141 9.42C55.9607 10.0867 56.3341 11.1067 56.3341 12.48V19H54.9741ZM51.3541 19.1C50.5674 19.1 49.8807 18.9733 49.2941 18.72C48.7207 18.4533 48.2807 18.0933 47.9741 17.64C47.6674 17.1733 47.5141 16.64 47.5141 16.04C47.5141 15.4933 47.6407 15 47.8941 14.56C48.1607 14.1067 48.5874 13.7467 49.1741 13.48C49.7741 13.2 50.5741 13.06 51.5741 13.06H55.1941V14.12H51.6141C50.6007 14.12 49.8941 14.3 49.4941 14.66C49.1074 15.02 48.9141 15.4667 48.9141 16C48.9141 16.6 49.1474 17.08 49.6141 17.44C50.0807 17.8 50.7341 17.98 51.5741 17.98C52.3741 17.98 53.0607 17.8 53.6341 17.44C54.2207 17.0667 54.6474 16.5333 54.9141 15.84L55.2341 16.82C54.9674 17.5133 54.5007 18.0667 53.8341 18.48C53.1807 18.8933 52.3541 19.1 51.3541 19.1ZM60.0756 22.98C59.5823 22.98 59.109 22.9 58.6556 22.74C58.2156 22.58 57.8356 22.34 57.5156 22.02L58.1756 20.96C58.4423 21.2133 58.729 21.4067 59.0356 21.54C59.3556 21.6867 59.709 21.76 60.0956 21.76C60.5623 21.76 60.9623 21.6267 61.2956 21.36C61.6423 21.1067 61.969 20.6533 62.2756 20L62.9556 18.46L63.1156 18.24L67.4356 8.5H68.8356L63.5756 20.26C63.2823 20.94 62.9556 21.48 62.5956 21.88C62.249 22.28 61.869 22.56 61.4556 22.72C61.0423 22.8933 60.5823 22.98 60.0756 22.98ZM62.8756 19.3L58.0356 8.5H59.5156L63.7956 18.14L62.8756 19.3Z" fill="#167EC9"/>
</g>
<g filter="url(#filter1_d_3_34)">
<path fill-rule="evenodd" clip-rule="evenodd" d="M84.5 24C86.6731 24 88.6303 23.0758 90 21.5991C91.3697 23.0758 93.3269 24 95.5 24C99.0438 24 102.014 21.5421 102.798 18.238C105.286 17.0177 107 14.459 107 11.5C107 8.39104 105.108 5.7239 102.413 4.5868C101.276 1.89167 98.609 0 95.5 0C93.3269 0 91.3697 0.924178 90 2.40093C88.6303 0.924178 86.6731 0 84.5 0C81.391 0 78.7239 1.89167 77.5868 4.5868C74.8917 5.7239 73 8.39104 73 11.5C73 14.459 74.7135 17.0177 77.2024 18.238C77.9864 21.5421 80.9562 24 84.5 24Z" fill="#0093FE" fill-opacity="0.19" shape-rendering="crispEdges"/>
</g>
<defs>
<filter id="filter0_d_3_34" x="0.279999" y="5" width="72.5556" height="25.98" filterUnits="userSpaceOnUse" color-interpolation-filters="sRGB">
<feFlood flood-opacity="0" result="BackgroundImageFix"/>
<feColorMatrix in="SourceAlpha" type="matrix" values="0 0 0 0 0 0 0 0 0 0 0 0 0 0 0 0 0 0 127 0" result="hardAlpha"/>
<feOffset dy="4"/>
<feGaussianBlur stdDeviation="2"/>
<feComposite in2="hardAlpha" operator="out"/>
<feColorMatrix type="matrix" values="0 0 0 0 0 0 0 0 0 0 0 0 0 0 0 0 0 0 0.25 0"/>
<feBlend mode="normal" in2="BackgroundImageFix" result="effect1_dropShadow_3_34"/>
<feBlend mode="normal" in="SourceGraphic" in2="effect1_dropShadow_3_34" result="shape"/>
</filter>
<filter id="filter1_d_3_34" x="69" y="0" width="42" height="32" filterUnits="userSpaceOnUse" color-interpolation-filters="sRGB">
<feFlood flood-opacity="0" result="BackgroundImageFix"/>
<feColorMatrix in="SourceAlpha" type="matrix" values="0 0 0 0 0 0 0 0 0 0 0 0 0 0 0 0 0 0 127 0" result="hardAlpha"/>
<feOffset dy="4"/>
<feGaussianBlur stdDeviation="2"/>
<feComposite in2="hardAlpha" operator="out"/>
<feColorMatrix type="matrix" values="0 0 0 0 0 0 0 0 0 0 0 0 0 0 0 0 0 0 0.25 0"/>
<feBlend mode="normal" in2="BackgroundImageFix" result="effect1_dropShadow_3_34"/>
<feBlend mode="normal" in="SourceGraphic" in2="effect1_dropShadow_3_34" result="shape"/>
</filter>
</defs>
</svg>
